<svg xmlns="http://www.w3.org/2000/svg" viewBox="0 0 1024 1024"><defs><filter id="a" width="1.1" height="1.1" x="0" y="0"><feGaussianBlur stdDeviation="12"/></filter></defs><path fill="rgba(0,0,0,0.3)" d="M924 355v-28a1164 1164 0 0 0-5-78c-3-18-9-35-17-51a172 172 0 0 0-32-44 172 172 0 0 0-43-32c-17-8-33-13-51-16a360 360 0 0 0-79-6H328a1190 1190 0 0 0-79 6c-18 3-35 8-51 16a172 172 0 0 0-44 32 172 172 0 0 0-31 44c-9 16-14 33-17 51a358 358 0 0 0-5 78l-1 32v196l1 112v30a1180 1180 0 0 0 5 78c3 18 8 35 17 52a172 172 0 0 0 31 43 172 172 0 0 0 44 32c16 8 33 14 51 17a360 360 0 0 0 79 5h369a1179 1179 0 0 0 79-5c18-3 34-9 51-17a172 172 0 0 0 43-32 172 172 0 0 0 32-43c8-17 14-34 17-52a360 360 0 0 0 5-78V355z" filter="url(#a)" transform="translate(0 10)"/><path fill="#c60" d="M924 355v-28a1164 1164 0 0 0-5-78c-3-18-9-35-17-51a172 172 0 0 0-32-44 172 172 0 0 0-43-32c-17-8-33-13-51-16a360 360 0 0 0-79-6H328a1190 1190 0 0 0-79 6c-18 3-35 8-51 16a172 172 0 0 0-44 32 172 172 0 0 0-31 44c-9 16-14 33-17 51a358 358 0 0 0-5 78l-1 32v196l1 112v30a1180 1180 0 0 0 5 78c3 18 8 35 17 52a172 172 0 0 0 31 43 172 172 0 0 0 44 32c16 8 33 14 51 17a360 360 0 0 0 79 5h369a1179 1179 0 0 0 79-5c18-3 34-9 51-17a172 172 0 0 0 43-32 172 172 0 0 0 32-43c8-17 14-34 17-52a360 360 0 0 0 5-78V355z"/><path fill="#f5f5f5" d="M870 154 576 448v128H448L154 870a172 172 0 0 0 95 49 360 360 0 0 0 79 5h369a1179 1179 0 0 0 79-5 182 182 0 0 0 94-49 172 172 0 0 0 49-95 360 360 0 0 0 5-78V355a4715 4715 0 0 0 0-52c-1-18-2-36-5-54a181 181 0 0 0-49-95zM319 611c39-38 39-83 13-109-23-22-47-22-77-8l-27 10c-22 10-36 16-44 8-10-10-6-22 6-34 16-16 28-20 48-24l-4-41c-28 0-56 12-74 30-35 35-37 81-11 108 23 22 53 20 77 8l29-12c20-8 34-15 44-4 8 8 8 20-8 36s-36 24-59 26l4 45c33 0 61-16 83-39zm122-125 44-45-111-204-36 37 54 91 39 62-2 2-63-38-91-55-39 39zm180-176c20-20 30-47 32-69l-73-73-56 57 28 28 24-24 29 28-13 21c-24 24-54 18-87-15s-36-64-16-85c14-14 25-16 39-18l-4-40c-21 0-45 4-67 26-41 41-43 103 10 156 55 54 113 48 154 8z"/><path fill="#c60" d="m512 896 80-78-20-20-26 24-90-87-19 18c-3 13-8 23-21 40l16 16 25-24 64 62-30 29zm145-137c27-26 25-64-14-102-38-37-77-39-104-13-27 27-25 65 13 102 39 37 78 39 105 13zm-22-22c-12 12-32 7-57-17-23-23-29-42-17-54s32-6 56 16c25 24 30 44 18 55zm83-41 83-80-22-21-26 25-19 21c3-39 2-77-16-95-22-21-52-19-75 3a69 69 0 0 0-22 56h28c0-12 2-24 11-33 11-11 24-12 35-1 16 15 13 54 8 111zm79-166-7-40-7-30h1l23 24 19 18zm75 17 24-23-27-26 14-14-19-19-14 14-65-63-31 30 20 110 18 17 53-52z"/></svg>