<svg xmlns="http://www.w3.org/2000/svg" viewBox="0 0 1024 1024"><defs><filter id="a" width="1.07" height="1.07" x="-.03" y="-.03"><feGaussianBlur stdDeviation="12"/></filter><path id="b" d="M224 352h576v256H224z"/></defs><path fill="rgba(0,0,0,0.3)" d="M924 355.41c0-9.78 0-18.35-.06-28.13-.05-8.24-.14-16.48-.36-24.72-.49-17.95-1.55-36.06-4.74-53.81-3.24-18.01-8.53-34.77-16.86-51.13a171.96 171.96 0 0 0-31.66-43.56 172.06 172.06 0 0 0-43.57-31.64c-16.39-8.34-33.16-13.62-51.2-16.86-17.75-3.19-35.86-4.25-53.81-4.73-8.25-.22-16.49-.32-24.73-.37-9.79-.06-19.58-.05-29.37-.05L554 100h-85l-111.64.4c-9.8 0-19.61 0-29.42.06-8.26.05-16.52.15-24.78.37-18 .48-36.15 1.54-53.94 4.74-18.06 3.23-34.86 8.52-51.26 16.84a172.4 172.4 0 0 0-43.67 31.65 172 172 0 0 0-31.72 43.55c-8.35 16.37-13.65 33.14-16.9 51.16-3.2 17.75-4.25 35.85-4.74 53.8a1184 1184 0 0 0-.37 24.7c-.06 9.8-.56 21.95-.56 31.73v196l.5 112.43c0 9.8 0 19.59.06 29.39.05 8.25.15 16.5.37 24.75.49 17.97 1.55 36.1 4.75 53.88 3.24 18.03 8.54 34.82 16.89 51.2a172.24 172.24 0 0 0 31.72 43.62 172.44 172.44 0 0 0 43.66 31.69c16.41 8.34 33.22 13.63 51.29 16.88 17.79 3.19 35.93 4.25 53.92 4.73 8.26.23 16.52.32 24.78.37 9.8.06 19.61.06 29.42.06h310.28c9.8 0 19.58 0 29.37-.06 8.24-.05 16.48-.14 24.73-.37 17.96-.48 36.08-1.54 53.84-4.74 18.02-3.24 34.79-8.53 51.16-16.87a172 172 0 0 0 43.58-31.69 172.23 172.23 0 0 0 31.66-43.61c8.34-16.4 13.62-33.18 16.86-51.23 3.2-17.77 4.25-35.9 4.74-53.86.22-8.25.31-16.5.36-24.76.06-9.8.06-19.59.06-29.38V355.4z" filter="url(#a)" transform="translate(0 10)"/><path fill="#77d1fb" d="M924 355.41c0-9.78 0-18.35-.06-28.13-.05-8.24-.14-16.48-.36-24.72-.49-17.95-1.55-36.06-4.74-53.81-3.24-18.01-8.53-34.77-16.86-51.13a171.96 171.96 0 0 0-31.66-43.56 172.06 172.06 0 0 0-43.57-31.64c-16.39-8.34-33.16-13.62-51.2-16.86-17.75-3.19-35.86-4.25-53.81-4.73-8.25-.22-16.49-.32-24.73-.37-9.79-.06-19.58-.05-29.37-.05L554 100h-85l-111.64.4c-9.8 0-19.61 0-29.42.06-8.26.05-16.52.15-24.78.37-18 .48-36.15 1.54-53.94 4.74-18.06 3.23-34.86 8.52-51.26 16.84a172.4 172.4 0 0 0-43.67 31.65 172 172 0 0 0-31.72 43.55c-8.35 16.37-13.65 33.14-16.9 51.16-3.2 17.75-4.25 35.85-4.74 53.8a1184 1184 0 0 0-.37 24.7c-.06 9.8-.56 21.95-.56 31.73v196l.5 112.43c0 9.8 0 19.59.06 29.39.05 8.25.15 16.5.37 24.75.49 17.97 1.55 36.1 4.75 53.88 3.24 18.03 8.54 34.82 16.89 51.2a172.24 172.24 0 0 0 31.72 43.62 172.44 172.44 0 0 0 43.66 31.69c16.41 8.34 33.22 13.63 51.29 16.88 17.79 3.19 35.93 4.25 53.92 4.73 8.26.23 16.52.32 24.78.37 9.8.06 19.61.06 29.42.06h310.28c9.8 0 19.58 0 29.37-.06 8.24-.05 16.48-.14 24.73-.37 17.96-.48 36.08-1.54 53.84-4.74 18.02-3.24 34.79-8.53 51.16-16.87a172 172 0 0 0 43.58-31.69 172.23 172.23 0 0 0 31.66-43.61c8.34-16.4 13.62-33.18 16.86-51.23 3.2-17.77 4.25-35.9 4.74-53.86.22-8.25.31-16.5.36-24.76.06-9.8.06-19.59.06-29.38V355.4z"/><path fill="#f5f5f5" d="M870.12 153.88 576 448v128H448L154.03 869.97l.26.3a172.44 172.44 0 0 0 43.66 31.69c16.41 8.34 33.22 13.63 51.29 16.88 17.79 3.19 35.93 4.25 53.92 4.73 8.26.23 16.52.32 24.78.37 9.8.06 19.61.06 29.42.06h310.28c9.8 0 19.58 0 29.37-.06 8.24-.05 16.49-.14 24.73-.37 17.96-.48 36.08-1.54 53.84-4.74 18.02-3.24 34.79-8.53 51.16-16.87a172 172 0 0 0 75.24-75.3c8.34-16.4 13.62-33.18 16.86-51.23 3.2-17.77 4.25-35.9 4.74-53.86.22-8.25.31-16.5.36-24.76.06-9.8.06-19.59.06-29.38V355.4c0-9.78 0-18.35-.06-28.13-.05-8.24-.14-16.48-.36-24.72-.49-17.95-1.55-36.06-4.74-53.81-3.24-18.01-8.53-34.77-16.86-51.13a171.96 171.96 0 0 0-31.66-43.56z"/><path fill="#f5f5f5" d="M259.76 458.44c19.44 0 30.36-11.28 30.36-24.24 0-11.04-6.48-17.4-16.8-21.24l-9.48-4.08c-7.56-2.76-12.84-4.56-12.84-9.24 0-4.56 3.96-7.08 9.84-7.08 7.68 0 12.6 2.28 18 6.24l9-11.16a38 38 0 0 0-26.04-10.32c-16.92 0-28.68 10.32-28.68 23.28 0 11.4 7.92 18.12 16.68 21.36l10.08 4.32c7.44 3.12 12.12 4.56 12.12 10.08 0 3.96-3.48 6.84-11.04 6.84-7.56 0-14.88-3.36-20.76-8.16L230 447.16a45.16 45.16 0 0 0 29.76 11.28zm61.68-1.44h21.24l23.52-78.24h-18l-9.24 36.48c-2.28 8.52-3.96 16.44-6.36 25.08h-.48c-2.28-8.64-3.84-16.56-6.24-25.08l-9.36-36.48H297.8zm87.72 1.44c9.96 0 19.2-4.56 24.48-9.48v-36H406.4v14.4h11.4v13.44c-1.68 1.56-4.68 2.4-7.68 2.4-12.36 0-18.6-9.36-18.6-25.44 0-15.72 7.68-25.2 17.88-25.2 6.24 0 9.84 2.28 13.2 5.64l9.72-10.92c-5.04-5.04-12.36-9.96-22.92-9.96-20.28 0-36.12 14.88-36.12 41.04 0 26.28 15.84 40.08 35.88 40.08z"  transform="rotate(-45 -312.84 1471.96) scale(2.86061)"/><path fill="#77d1fb" d="M249.56 457h17.64v-45.72h20.52v-13.8H267.2v-1.68c0-7.2 3.6-10.44 11.16-10.44 4.56 0 8.76.84 12.48 2.28l3.36-12.96c-5.04-1.68-11.16-3.24-18-3.24-18.6 0-26.64 10.8-26.64 24.48v1.56l-15.72.72v13.08h15.72zm82.44 1.44c15.72 0 30.36-11.4 30.36-31.2 0-19.8-14.64-31.2-30.36-31.2-15.72 0-30.36 11.4-30.36 31.2 0 19.8 14.64 31.2 30.36 31.2zm0-14.28c-8.16 0-12.24-6.6-12.24-16.92 0-10.32 4.08-16.92 12.24-16.92s12.24 6.6 12.24 16.92c0 10.32-4.08 16.92-12.24 16.92zm83.4 14.28c7.44 0 11.64-1.2 17.88-3.24l-3.96-12.96a24 24 0 0 1-9.24 1.92c-5.04 0-9.72-2.4-9.72-9.72v-61.56H374v13.92h18.72v46.92c0 15.12 7.8 24.72 22.68 24.72zm55.32 0c6 0 12.12-3.24 16.56-7.56h.36l1.32 6.12h14.4v-84.12h-17.64v20.28l.84 9.24h-.48c-3.96-4.08-8.4-6.36-15-6.36-12.96 0-25.44 11.76-25.44 31.2 0 19.44 9.96 31.2 25.08 31.2zm4.56-14.4c-7.32 0-11.52-5.28-11.52-17.04 0-11.28 5.52-16.56 12-16.56 3.48 0 6.72 1.08 9.96 3.96v24.12c-3.12 3.96-6.48 5.52-10.44 5.52zm74.88-34.56c6.84 0 10.92 3.84 11.76 11.16h-25.44c1.8-7.44 6.72-11.16 13.68-11.16zm1.44 48.96c7.92 0 16.8-2.64 23.64-6.96l-5.88-10.68c-5.28 2.76-9.96 4.2-15.36 4.2-9.72 0-16.08-3.84-17.76-12.48h40.56c.24-1.44.84-4.68.84-7.92 0-16.2-9.72-28.56-28.08-28.56-15.96 0-30.96 11.64-30.96 31.2 0 19.8 14.4 31.2 33 31.2zm46.32-1.44h17.64v-30.96c5.04-10.68 12.72-14.52 20.04-14.52 4.44 0 6.84.6 10.56 1.68l3.6-14.76c-3.48-1.56-6.24-2.4-11.52-2.4-9.48 0-18.24 4.68-24.12 14.4h-.36l-1.44-12.96h-14.4z" transform="rotate(-45 779.75 479.95) scale(1.28673)"/></svg>