<?xml version="1.0" encoding="UTF-8" standalone="no"?>
<svg
   width="1024"
   height="1024"
   version="1.1"
   id="svg453"
   sodipodi:docname="svg2any.inkscape.svg"
   inkscape:version="1.2.1 (9c6d41e, 2022-07-14)"
   inkscape:export-filename="svg2png.png"
   inkscape:export-xdpi="96"
   inkscape:export-ydpi="96"
   xmlns:inkscape="http://www.inkscape.org/namespaces/inkscape"
   xmlns:sodipodi="http://sodipodi.sourceforge.net/DTD/sodipodi-0.dtd"
   xmlns="http://www.w3.org/2000/svg"
   xmlns:svg="http://www.w3.org/2000/svg">
  <sodipodi:namedview
     id="namedview455"
     pagecolor="#ffffff"
     bordercolor="#000000"
     borderopacity="0.25"
     inkscape:showpageshadow="2"
     inkscape:pageopacity="0.0"
     inkscape:pagecheckerboard="0"
     inkscape:deskcolor="#d1d1d1"
     showgrid="true"
     inkscape:zoom="1.0029297"
     inkscape:cx="417.2775"
     inkscape:cy="547.39629"
     inkscape:window-width="1794"
     inkscape:window-height="1246"
     inkscape:window-x="51"
     inkscape:window-y="25"
     inkscape:window-maximized="0"
     inkscape:current-layer="svg453">
    <inkscape:grid
       type="xygrid"
       id="grid626"
       empspacing="32" />
  </sodipodi:namedview>
  <defs
     id="defs">
    <rect
       x="224"
       y="352"
       width="576"
       height="256"
       id="rect" />
    <filter
       id="blur_shadow"
       x="-0.034951456"
       y="-0.034951456"
       width="1.0699029"
       height="1.0699029">
      <feGaussianBlur
         stdDeviation="12"
         id="feGaussianBlur444" />
    </filter>
  </defs>
  <style
     id="style">text { font-weight:bold; font-size:120px; font-family:'Source Code Pro'; -inkscape-font-specification:'Source Code Pro Bold'; white-space:pre; display:inline; }
#triangle-down-clear, #text-up-left { fill:#f5f5f5;stroke:none;fill-opacity:1 }
#triangle-up-color, #text-down-right { fill:#055261;stroke:none;fill-opacity:1 }
</style>
  <path
     id="shadow"
     d="M924 355.412c0-9.782 0-18.35-.056-28.133-.049-8.241-.144-16.48-.368-24.716-.484-17.954-1.543-36.061-4.736-53.813-3.238-18.01-8.526-34.77-16.859-51.133a171.963 171.963 0 00-31.661-43.559 172.06 172.06 0 00-43.574-31.64c-16.381-8.335-33.159-13.621-51.188-16.858-17.755-3.188-35.867-4.245-53.82-4.73-8.243-.223-16.485-.317-24.73-.368-9.788-.06-19.576-.055-29.364-.055L553.997 100h-84.999l-111.637.407c-9.807 0-19.614-.005-29.421.055-8.262.051-16.52.145-24.778.368-17.995.485-36.148 1.543-53.945 4.735-18.053 3.236-34.857 8.52-51.259 16.849a172.405 172.405 0 00-43.667 31.644 171.994 171.994 0 00-31.718 43.551c-8.356 16.372-13.654 33.143-16.9 51.162-3.196 17.746-4.255 35.846-4.742 53.792-.222 8.237-.318 16.476-.368 24.716-.06 9.784-.563 21.937-.563 31.72v195.999l.508 112.429c0 9.796-.004 19.592.055 29.388.05 8.252.146 16.502.369 24.751.486 17.976 1.547 36.109 4.746 53.886 3.245 18.032 8.542 34.818 16.891 51.201a172.24 172.24 0 0031.722 43.619 172.444 172.444 0 0043.659 31.684c16.412 8.346 33.224 13.639 51.288 16.88 17.789 3.193 35.936 4.252 53.924 4.737 8.258.223 16.517.318 24.779.368 9.807.059 19.613.059 29.42.059h310.283c9.788 0 19.576 0 29.364-.059 8.245-.05 16.487-.145 24.73-.368 17.96-.486 36.078-1.546 53.841-4.741 18.018-3.241 34.788-8.532 51.159-16.873a172.004 172.004 0 0043.582-31.687 172.23 172.23 0 0031.659-43.612c8.337-16.391 13.625-33.184 16.865-51.229 3.19-17.77 4.248-35.896 4.733-53.865.223-8.25.318-16.5.367-24.751.056-9.796.056-19.592.056-29.388V355.412z"
     fill="rgba(0,0,0,0.3)"
     filter="url(#blur_shadow)"
     transform="translate(0 10)" />
  <path
     id="triangle-up-color"
     d="M924 355.412c0-9.782 0-18.35-.056-28.133-.049-8.241-.144-16.48-.368-24.716-.484-17.954-1.543-36.061-4.736-53.813-3.238-18.01-8.526-34.77-16.859-51.133a171.963 171.963 0 00-31.661-43.559 172.06 172.06 0 00-43.574-31.64c-16.381-8.335-33.159-13.621-51.188-16.858-17.755-3.188-35.867-4.245-53.82-4.73-8.243-.223-16.485-.317-24.73-.368-9.788-.06-19.576-.055-29.364-.055L553.997 100h-84.999l-111.637.407c-9.807 0-19.614-.005-29.421.055-8.262.051-16.52.145-24.778.368-17.995.485-36.148 1.543-53.945 4.735-18.053 3.236-34.857 8.52-51.259 16.849a172.405 172.405 0 00-43.667 31.644 171.994 171.994 0 00-31.718 43.551c-8.356 16.372-13.654 33.143-16.9 51.162-3.196 17.746-4.255 35.846-4.742 53.792-.222 8.237-.318 16.476-.368 24.716-.06 9.784-.563 21.937-.563 31.72v195.999l.508 112.429c0 9.796-.004 19.592.055 29.388.05 8.252.146 16.502.369 24.751.486 17.976 1.547 36.109 4.746 53.886 3.245 18.032 8.542 34.818 16.891 51.201a172.24 172.24 0 0031.722 43.619 172.444 172.444 0 0043.659 31.684c16.412 8.346 33.224 13.639 51.288 16.88 17.789 3.193 35.936 4.252 53.924 4.737 8.258.223 16.517.318 24.779.368 9.807.059 19.613.059 29.42.059h310.283c9.788 0 19.576 0 29.364-.059 8.245-.05 16.487-.145 24.73-.368 17.96-.486 36.078-1.546 53.841-4.741 18.018-3.241 34.788-8.532 51.159-16.873a172.004 172.004 0 0043.582-31.687 172.23 172.23 0 0031.659-43.612c8.337-16.391 13.625-33.184 16.865-51.229 3.19-17.77 4.248-35.896 4.733-53.865.223-8.25.318-16.5.367-24.751.056-9.796.056-19.592.056-29.388V355.412z" />
  <path
     id="triangle-down-clear"
     d="M 870.11527,153.88476 576,448 V 576 H 448 L 154.03129,869.96874 c 0.0865,0.10101 0.17306,0.20192 0.25977,0.30273 12.80054,12.78607 27.53349,23.47806 43.6582,31.6836 16.41198,8.34599 33.22508,13.63986 51.28906,16.88086 17.78898,3.19299 35.93585,4.25133 53.92383,4.73633 8.25799,0.223 16.5173,0.31914 24.7793,0.36914 9.80699,0.059 19.61293,0.0586 29.41992,0.0586 h 310.2832 c 9.78799,0 19.57529,4.1e-4 29.36328,-0.0586 8.24499,-0.05 16.48748,-0.14614 24.73047,-0.36914 17.95998,-0.486 36.07686,-1.54524 53.83984,-4.74024 18.01799,-3.241 34.78918,-8.53205 51.16016,-16.87305 16.10187,-8.20727 30.80965,-18.90096 43.58203,-31.6875 12.77577,-12.78585 23.45926,-27.50308 31.65821,-43.61132 8.33699,-16.39099 13.62523,-33.18354 16.86523,-51.22852 3.19,-17.76998 4.24742,-35.89625 4.73242,-53.86523 0.223,-8.25 0.31819,-16.50097 0.36719,-24.75196 C 923.9994,687.01845 924,677.22371 924,667.42772 V 355.4121 c 0,-9.78199 -6.4e-4,-18.34982 -0.0566,-28.13281 -0.049,-8.24099 -0.14319,-16.48081 -0.36719,-24.7168 -0.484,-17.95398 -1.54333,-36.06052 -4.73633,-53.8125 -3.23799,-18.00998 -8.52638,-34.76983 -16.85937,-51.13281 -8.20045,-16.09205 -18.8848,-30.79177 -31.66016,-43.5586 z"
     sodipodi:nodetypes="ccccccccccsscssccccccsscccccc" />
  <g
     aria-label="SVG"
     transform="matrix(2.0227586,-2.0227586,2.0227586,2.0227586,-1132.4618,209.92102)"
     id="text-up-left"
     style="font-weight:bold;font-size:120px;font-family:'Source Code Pro';-inkscape-font-specification:'Source Code Pro Bold';white-space:pre;shape-inside:url(#rect);display:inline;fill:#f5f5f5">
    <path
       d="m 259.76,458.44 c 19.44,0 30.36,-11.28 30.36,-24.24 0,-11.04 -6.48,-17.4 -16.8,-21.24 l -9.48,-4.08 c -7.56,-2.76 -12.84,-4.56 -12.84,-9.24 0,-4.56 3.96,-7.08 9.84,-7.08 7.68,0 12.6,2.28 18,6.24 l 9,-11.16 c -7.08,-6.72 -16.56,-10.32 -26.04,-10.32 -16.92,0 -28.68,10.32 -28.68,23.28 0,11.4 7.92,18.12 16.68,21.36 l 10.08,4.32 c 7.44,3.12 12.12,4.56 12.12,10.08 0,3.96 -3.48,6.84 -11.04,6.84 -7.56,0 -14.88,-3.36 -20.76,-8.16 L 230,447.16 c 8.4,7.44 19.2,11.28 29.76,11.28 z"
       id="path997" />
    <path
       d="m 321.43982,457 h 21.24 l 23.52,-78.24 h -18 l -9.24,36.48 c -2.28,8.52 -3.96,16.44 -6.36,25.08 h -0.48 c -2.28,-8.64 -3.84,-16.56 -6.24,-25.08 l -9.36,-36.48 h -18.72 z"
       id="path999" />
    <path
       d="m 409.15963,458.44 c 9.96,0 19.2,-4.56 24.48,-9.48 v -36 h -27.24 v 14.4 h 11.4 v 13.44 c -1.68,1.56 -4.68,2.4 -7.68,2.4 -12.36,0 -18.6,-9.36 -18.6,-25.44 0,-15.72 7.68,-25.2 17.88,-25.2 6.24,0 9.84,2.28 13.2,5.64 l 9.72,-10.92 c -5.04,-5.04 -12.36,-9.96 -22.92,-9.96 -20.28,0 -36.12,14.88 -36.12,41.04 0,26.28 15.84,40.08 35.88,40.08 z"
       id="g" />
  </g>
  <g
     aria-label="*"
     transform="matrix(3.3706528,-3.3706528,3.3706528,3.3706528,-1580.3664,172.37303)"
     id="text-down-right"
     style="font-weight:bold;font-size:120px;font-family:'Source Code Pro';-inkscape-font-specification:'Source Code Pro Bold';white-space:pre;shape-inside:url(#rect);display:inline;fill:#055261">
    <path
       d="m 246.08,446.08 13.92,-17.04 13.92,17.04 7.68,-5.28 -11.64,-18.84 18.36,-8.16 -2.76,-8.52 -19.44,5.16 -1.44,-21.36 h -9.36 l -1.44,21.36 -19.44,-5.16 -2.76,8.52 18.36,8.16 -11.64,18.84 z"
       id="star" />
  </g>
</svg>
