<?xml version="1.0" encoding="UTF-8" standalone="no"?>
<svg
   width="1024"
   height="1024"
   version="1.1"
   id="svg453"
   sodipodi:docname="svg2png.svg"
   inkscape:version="1.2.1 (9c6d41e, 2022-07-14)"
   inkscape:export-filename="svg2png.png"
   inkscape:export-xdpi="96"
   inkscape:export-ydpi="96"
   xmlns:inkscape="http://www.inkscape.org/namespaces/inkscape"
   xmlns:sodipodi="http://sodipodi.sourceforge.net/DTD/sodipodi-0.dtd"
   xmlns="http://www.w3.org/2000/svg"
   xmlns:svg="http://www.w3.org/2000/svg">
  <sodipodi:namedview
	 id="namedview455"
	 pagecolor="#ffffff"
	 bordercolor="#000000"
	 borderopacity="0.25"
	 inkscape:showpageshadow="2"
	 inkscape:pageopacity="0.0"
	 inkscape:pagecheckerboard="0"
	 inkscape:deskcolor="#d1d1d1"
	 showgrid="true"
	 inkscape:zoom="1.0029297"
	 inkscape:cx="491.06134"
	 inkscape:cy="544.40506"
	 inkscape:window-width="1766"
	 inkscape:window-height="1518"
	 inkscape:window-x="1630"
	 inkscape:window-y="25"
	 inkscape:window-maximized="0"
	 inkscape:current-layer="svg453">
	<inkscape:grid
	   type="xygrid"
	   id="grid626"
	   empspacing="32" />
  </sodipodi:namedview>
  <defs
	 id="defs">
	<rect
	   x="224"
	   y="352"
	   width="576"
	   height="256"
	   id="rect" />
	<filter
	   id="blur_shadow"
	   x="-0.034951456"
	   y="-0.034951456"
	   width="1.0699029"
	   height="1.0699029">
	  <feGaussianBlur
		 stdDeviation="12"
		 id="feGaussianBlur444" />
	</filter>

  </defs>
  <style
	 id="style">text { font-weight:bold; font-size:120px; font-family:'Source Code Pro'; -inkscape-font-specification:'Source Code Pro Bold'; white-space:pre; display:inline; }
#triangle-down-clear, #text-up-left { fill:#f5f5f5;stroke:none;fill-opacity:1 }
#triangle-up-color, #text-down-right { fill:#410891;stroke:none;fill-opacity:1 }
</style>
  <path
	 id="shadow"
	 d="M924 355.412c0-9.782 0-18.35-.056-28.133-.049-8.241-.144-16.48-.368-24.716-.484-17.954-1.543-36.061-4.736-53.813-3.238-18.01-8.526-34.77-16.859-51.133a171.963 171.963 0 00-31.661-43.559 172.06 172.06 0 00-43.574-31.64c-16.381-8.335-33.159-13.621-51.188-16.858-17.755-3.188-35.867-4.245-53.82-4.73-8.243-.223-16.485-.317-24.73-.368-9.788-.06-19.576-.055-29.364-.055L553.997 100h-84.999l-111.637.407c-9.807 0-19.614-.005-29.421.055-8.262.051-16.52.145-24.778.368-17.995.485-36.148 1.543-53.945 4.735-18.053 3.236-34.857 8.52-51.259 16.849a172.405 172.405 0 00-43.667 31.644 171.994 171.994 0 00-31.718 43.551c-8.356 16.372-13.654 33.143-16.9 51.162-3.196 17.746-4.255 35.846-4.742 53.792-.222 8.237-.318 16.476-.368 24.716-.06 9.784-.563 21.937-.563 31.72v195.999l.508 112.429c0 9.796-.004 19.592.055 29.388.05 8.252.146 16.502.369 24.751.486 17.976 1.547 36.109 4.746 53.886 3.245 18.032 8.542 34.818 16.891 51.201a172.24 172.24 0 0031.722 43.619 172.444 172.444 0 0043.659 31.684c16.412 8.346 33.224 13.639 51.288 16.88 17.789 3.193 35.936 4.252 53.924 4.737 8.258.223 16.517.318 24.779.368 9.807.059 19.613.059 29.42.059h310.283c9.788 0 19.576 0 29.364-.059 8.245-.05 16.487-.145 24.73-.368 17.96-.486 36.078-1.546 53.841-4.741 18.018-3.241 34.788-8.532 51.159-16.873a172.004 172.004 0 0043.582-31.687 172.23 172.23 0 0031.659-43.612c8.337-16.391 13.625-33.184 16.865-51.229 3.19-17.77 4.248-35.896 4.733-53.865.223-8.25.318-16.5.367-24.751.056-9.796.056-19.592.056-29.388V355.412z"
	 fill="rgba(0,0,0,0.3)"
	 filter="url(#blur_shadow)"
	 transform="translate(0 10)" />
  <path
  id="triangle-up-color"
	 d="M924 355.412c0-9.782 0-18.35-.056-28.133-.049-8.241-.144-16.48-.368-24.716-.484-17.954-1.543-36.061-4.736-53.813-3.238-18.01-8.526-34.77-16.859-51.133a171.963 171.963 0 00-31.661-43.559 172.06 172.06 0 00-43.574-31.64c-16.381-8.335-33.159-13.621-51.188-16.858-17.755-3.188-35.867-4.245-53.82-4.73-8.243-.223-16.485-.317-24.73-.368-9.788-.06-19.576-.055-29.364-.055L553.997 100h-84.999l-111.637.407c-9.807 0-19.614-.005-29.421.055-8.262.051-16.52.145-24.778.368-17.995.485-36.148 1.543-53.945 4.735-18.053 3.236-34.857 8.52-51.259 16.849a172.405 172.405 0 00-43.667 31.644 171.994 171.994 0 00-31.718 43.551c-8.356 16.372-13.654 33.143-16.9 51.162-3.196 17.746-4.255 35.846-4.742 53.792-.222 8.237-.318 16.476-.368 24.716-.06 9.784-.563 21.937-.563 31.72v195.999l.508 112.429c0 9.796-.004 19.592.055 29.388.05 8.252.146 16.502.369 24.751.486 17.976 1.547 36.109 4.746 53.886 3.245 18.032 8.542 34.818 16.891 51.201a172.24 172.24 0 0031.722 43.619 172.444 172.444 0 0043.659 31.684c16.412 8.346 33.224 13.639 51.288 16.88 17.789 3.193 35.936 4.252 53.924 4.737 8.258.223 16.517.318 24.779.368 9.807.059 19.613.059 29.42.059h310.283c9.788 0 19.576 0 29.364-.059 8.245-.05 16.487-.145 24.73-.368 17.96-.486 36.078-1.546 53.841-4.741 18.018-3.241 34.788-8.532 51.159-16.873a172.004 172.004 0 0043.582-31.687 172.23 172.23 0 0031.659-43.612c8.337-16.391 13.625-33.184 16.865-51.229 3.19-17.77 4.248-35.896 4.733-53.865.223-8.25.318-16.5.367-24.751.056-9.796.056-19.592.056-29.388V355.412z" />
  <path
	 id="triangle-down-clear"
	 d="M 870.11527,153.88476 576,448 V 576 H 448 L 154.03129,869.96874 c 0.0865,0.10101 0.17306,0.20192 0.25977,0.30273 12.80054,12.78607 27.53349,23.47806 43.6582,31.6836 16.41198,8.34599 33.22508,13.63986 51.28906,16.88086 17.78898,3.19299 35.93585,4.25133 53.92383,4.73633 8.25799,0.223 16.5173,0.31914 24.7793,0.36914 9.80699,0.059 19.61293,0.0586 29.41992,0.0586 h 310.2832 c 9.78799,0 19.57529,4.1e-4 29.36328,-0.0586 8.24499,-0.05 16.48748,-0.14614 24.73047,-0.36914 17.95998,-0.486 36.07686,-1.54524 53.83984,-4.74024 18.01799,-3.241 34.78918,-8.53205 51.16016,-16.87305 16.10187,-8.20727 30.80965,-18.90096 43.58203,-31.6875 12.77577,-12.78585 23.45926,-27.50308 31.65821,-43.61132 8.33699,-16.39099 13.62523,-33.18354 16.86523,-51.22852 3.19,-17.76998 4.24742,-35.89625 4.73242,-53.86523 0.223,-8.25 0.31819,-16.50097 0.36719,-24.75196 C 923.9994,687.01845 924,677.22371 924,667.42772 V 355.4121 c 0,-9.78199 -6.4e-4,-18.34982 -0.0566,-28.13281 -0.049,-8.24099 -0.14319,-16.48081 -0.36719,-24.7168 -0.484,-17.95398 -1.54333,-36.06052 -4.73633,-53.8125 -3.23799,-18.00998 -8.52638,-34.76983 -16.85937,-51.13281 -8.20045,-16.09205 -18.8848,-30.79177 -31.66016,-43.5586 z"
	 sodipodi:nodetypes="ccccccccccsscssccccccsscccccc" />
  <text
  id="text-up-left"
	 style="shape-inside:url(#rect)"
	 transform="matrix(2.0227586,-2.0227586,2.0227586,2.0227586,-1132.4618,209.92102)"><tspan
	   x="224"
	   y="457"
	   id="text-up-left-span">SVG</tspan></text>
  <text
  id="text-down-right"
	 style="shape-inside:url(#rect)"
	 transform="matrix(1.5981756,-1.5981756,1.5981756,1.5981756,-529.69992,538.00866)"><tspan
	   x="224"
	   y="457"
	   id="text-down-right-span">PNG</tspan></text>
</svg>
